<svg xmlns="http://www.w3.org/2000/svg" width="46" height="46" viewBox="0 0 46 46"><defs><linearGradient id="a" x1="100%" x2="0%" y1="0%" y2="115.387%"><stop offset="0%" stop-color="#FFBA05"/><stop offset="100%" stop-color="#FF7775"/></linearGradient></defs><path fill="url(#a)" fill-rule="evenodd" d="M161.034 1418.989h-4.023v-4.023a4.027 4.027 0 0 1 4.023-4.022 4.027 4.027 0 0 1 4.023 4.022 4.027 4.027 0 0 1-4.023 4.023m0-10.057a6.04 6.04 0 0 1 6.034 6.034 6.04 6.04 0 0 1-6.034 6.034h-5.028c-.556 0-1.006-.45-1.006-1.006v-5.028a6.04 6.04 0 0 1 6.034-6.034zm35.754-16.427a42.443 42.443 0 0 1-2.285 4.114c2.595 6.38 1.155 13.59-3.753 18.496a17.067 17.067 0 0 1-3.417 2.628 1.008 1.008 0 0 1-1.222-.155l-6.375-6.374c-2.879 1.823-4.89 2.67-4.96 2.7a1.01 1.01 0 0 1-1.092-.22l-11.379-11.377a1.008 1.008 0 0 1-.222-1.087c.028-.07.868-2.094 2.682-4.988l-6.353-6.352a1.008 1.008 0 0 1-.155-1.224 17.151 17.151 0 0 1 2.627-3.415c4.871-4.871 12.05-6.323 18.415-3.787a41.94 41.94 0 0 1 4.144-2.298.972.972 0 0 1 .34-.166c4.552-2.15 9.903-3.671 16.16-3.998a1.001 1.001 0 0 1 1.055 1.061c-.353 6.228-1.89 11.565-4.047 16.109a.996.996 0 0 1-.163.333zm-7.46 21.188c3.995-3.993 5.385-9.715 3.78-14.997-3.727 5.207-8.112 8.924-11.662 11.382l5.523 5.523c.871-.57 1.662-1.21 2.36-1.908zm-14.715-1.912c2.707-1.285 13.877-7.194 20.141-19.682l-10.907-10.906c-12.524 6.25-18.368 17.48-19.632 20.19l10.398 10.398zm6.534-21.956a5.034 5.034 0 0 1 5.029 5.029 5.034 5.034 0 0 1-5.029 5.028 5.034 5.034 0 0 1-5.028-5.028 5.034 5.034 0 0 1 5.028-5.029zm0 8.045a3.02 3.02 0 0 0 3.017-3.016 3.02 3.02 0 0 0-3.017-3.017 3.02 3.02 0 0 0-3.017 3.017 3.02 3.02 0 0 0 3.017 3.016zm-20.749-8.838l5.496 5.494c2.441-3.553 6.135-7.935 11.32-11.658a14.994 14.994 0 0 0-16.816 6.164zm35.262 1.13c1.652-3.792 2.845-8.132 3.251-13.078-4.97.386-9.324 1.562-13.122 3.206l9.871 9.872z" opacity=".9" transform="translate(-155 -1375)"/></svg>